<svg width="25" height="24" viewBox="0 0 25 24" fill="none" xmlns="http://www.w3.org/2000/svg">
<path d="M15.6663 18H18.6663" stroke="#494949" stroke-width="1.5" stroke-linecap="round" stroke-linejoin="round"/>
<path d="M15.6663 15H18.6663" stroke="#494949" stroke-width="1.5" stroke-linecap="round" stroke-linejoin="round"/>
<path d="M3.86719 12H21.8672" stroke="#494949" stroke-width="1.5" stroke-linecap="round" stroke-linejoin="round"/>
<path d="M21.8672 18.652C21.8672 19.949 20.8152 21 19.5192 21H6.21519C4.91819 21 3.86719 19.949 3.86719 18.652V5.348C3.86719 4.051 4.91819 3 6.21519 3H19.5192C20.8152 3 21.8672 4.051 21.8672 5.348V18.652Z" stroke="#494949" stroke-width="1.5" stroke-linecap="round" stroke-linejoin="round"/>
<path d="M15.8672 7.5H18.8672" stroke="#494949" stroke-width="1.5" stroke-linecap="round" stroke-linejoin="round"/>
<path d="M6.86719 7.5H9.86719" stroke="#494949" stroke-width="1.5" stroke-linecap="round" stroke-linejoin="round"/>
<path d="M8.36719 9V6" stroke="#494949" stroke-width="1.5" stroke-linecap="round" stroke-linejoin="round"/>
<path d="M7.30652 15.4399L9.42652 17.5599" stroke="#494949" stroke-width="1.5" stroke-linecap="round" stroke-linejoin="round"/>
<path d="M7.30652 17.5599L9.42652 15.4399" stroke="#494949" stroke-width="1.5" stroke-linecap="round" stroke-linejoin="round"/>
<path d="M12.8672 3V21" stroke="#494949" stroke-width="1.5" stroke-linecap="round" stroke-linejoin="round"/>
</svg>
