<svg width="25" height="24" viewBox="0 0 25 24" fill="none" xmlns="http://www.w3.org/2000/svg">
<g clip-path="url(#clip0_2185_239)">
<path d="M5.80422 5.97119C4.74222 7.06119 3.97122 8.43119 3.60022 9.95919" stroke="#494949" stroke-width="1.5" stroke-linecap="round" stroke-linejoin="round"/>
<path d="M10.1572 20.4431C10.7482 20.5711 11.3612 20.6421 11.9912 20.6421C12.8832 20.6421 13.7442 20.5061 14.5542 20.2551" stroke="#494949" stroke-width="1.5" stroke-linecap="round" stroke-linejoin="round"/>
<path d="M3.6012 14.041C3.9722 15.569 4.7432 16.939 5.8052 18.029" stroke="#494949" stroke-width="1.5" stroke-linecap="round" stroke-linejoin="round"/>
<path d="M20.2722 14.4641C19.8532 15.8761 19.0792 17.1331 18.0602 18.1421" stroke="#494949" stroke-width="1.5" stroke-linecap="round" stroke-linejoin="round"/>
<path d="M18.0602 5.85815C19.0792 6.86715 19.8522 8.12415 20.2722 9.53615" stroke="#494949" stroke-width="1.5" stroke-linecap="round" stroke-linejoin="round"/>
<path d="M10.1572 3.55715C10.7482 3.42915 11.3612 3.35815 11.9912 3.35815C12.8832 3.35815 13.7442 3.49415 14.5542 3.74515" stroke="#494949" stroke-width="1.5" stroke-linecap="round" stroke-linejoin="round"/>
<path d="M22.4011 10.2322C23.3774 11.2085 23.3774 12.7915 22.4011 13.7678C21.4248 14.7441 19.8418 14.7441 18.8655 13.7678C17.8892 12.7915 17.8892 11.2085 18.8655 10.2322C19.8418 9.25592 21.4248 9.25592 22.4011 10.2322Z" stroke="#494949" stroke-width="1.5" stroke-linecap="round" stroke-linejoin="round"/>
<path d="M9.69403 17.5694C10.6703 18.5457 10.6703 20.1286 9.69403 21.1049C8.71772 22.0812 7.13481 22.0812 6.1585 21.1049C5.18219 20.1286 5.18219 18.5457 6.1585 17.5694C7.13481 16.5931 8.71772 16.5931 9.69403 17.5694Z" stroke="#494949" stroke-width="1.5" stroke-linecap="round" stroke-linejoin="round"/>
<path d="M9.69403 2.89532C10.6703 3.87163 10.6703 5.45454 9.69403 6.43085C8.71772 7.40716 7.13481 7.40716 6.1585 6.43085C5.18219 5.45454 5.18219 3.87163 6.1585 2.89532C7.13481 1.91901 8.71772 1.91901 9.69403 2.89532Z" stroke="#494949" stroke-width="1.5" stroke-linecap="round" stroke-linejoin="round"/>
</g>
<defs>
<clipPath id="clip0_2185_239">
<rect width="24" height="24" fill="white" transform="translate(0.867188)"/>
</clipPath>
</defs>
</svg>
