<svg width="25" height="24" viewBox="0 0 25 24" fill="none" xmlns="http://www.w3.org/2000/svg">
<g clip-path="url(#clip0_2185_216)">
<path d="M14.3922 16.9221V19.2471C14.3922 19.7583 14.6811 20.2258 15.1385 20.4542L15.6605 20.7152C16.4203 21.095 17.3146 21.095 18.0745 20.7152L18.5965 20.4542C19.0537 20.2257 19.3426 19.7584 19.3425 19.2472V16.9221" stroke="#494949" stroke-width="1.5" stroke-linecap="round" stroke-linejoin="round"/>
<path d="M12.7802 16.116L15.8672 17.658C16.4988 17.973 17.2416 17.973 17.8732 17.658L20.9572 16.116C21.3264 15.9319 21.4765 15.4833 21.2924 15.1141C21.22 14.969 21.1023 14.8514 20.9572 14.779L17.8672 13.237C17.2359 12.921 16.4925 12.921 15.8612 13.237L12.7772 14.779C12.4084 14.9639 12.2594 15.4128 12.4443 15.7816C12.517 15.9266 12.6349 16.0439 12.7802 16.116Z" stroke="#494949" stroke-width="1.5" stroke-linecap="round" stroke-linejoin="round"/>
<path d="M20.3672 11V5C20.3672 3.89543 19.4718 3 18.3672 3H5.36719C4.26262 3 3.36719 3.89543 3.36719 5V17C3.36719 18.1046 4.26262 19 5.36719 19H11.3672" stroke="#494949" stroke-width="1.5" stroke-linecap="round" stroke-linejoin="round"/>
<path d="M9.61719 11H12.3672" stroke="#494949" stroke-width="1.5" stroke-linecap="round" stroke-linejoin="round"/>
<path d="M9.61719 7.12012H16.3672" stroke="#494949" stroke-width="1.5" stroke-linecap="round" stroke-linejoin="round"/>
<path d="M7.36719 11C7.36719 11.4529 7.02306 11.8251 6.58203 11.8701L6.49219 11.875C6.03928 11.875 5.66707 11.5309 5.62207 11.0898L5.61719 11C5.61719 10.5168 6.00894 10.125 6.49219 10.125L6.58203 10.1299C7.02306 10.1749 7.36719 10.5471 7.36719 11Z" fill="#494949"/>
<path d="M7.36719 7.125C7.36719 7.5779 7.02306 7.95012 6.58203 7.99512L6.49219 8C6.03928 8 5.66707 7.65587 5.62207 7.21484L5.61719 7.125C5.61719 6.64175 6.00894 6.25 6.49219 6.25C6.97544 6.25 7.36719 6.64175 7.36719 7.125Z" fill="#494949"/>
<path d="M21.3672 15.447V17.247" stroke="#494949" stroke-width="1.5" stroke-linecap="round" stroke-linejoin="round"/>
</g>
<defs>
<clipPath id="clip0_2185_216">
<rect width="24" height="24" fill="white" transform="translate(0.367188)"/>
</clipPath>
</defs>
</svg>
