<svg width="126" height="26" viewBox="0 0 126 26" fill="none" xmlns="http://www.w3.org/2000/svg">
<path d="M0.895386 13C0.895386 6.37258 6.26797 1 12.8954 1H112.839C119.466 1 124.839 6.37258 124.839 13C124.839 19.6274 119.466 25 112.839 25H12.8954C6.26796 25 0.895386 19.6274 0.895386 13Z" fill="url(#paint0_linear_2208_617)"/>
<path d="M0.895386 13C0.895386 6.37258 6.26797 1 12.8954 1H112.839C119.466 1 124.839 6.37258 124.839 13C124.839 19.6274 119.466 25 112.839 25H12.8954C6.26796 25 0.895386 19.6274 0.895386 13Z" fill="url(#paint1_linear_2208_617)"/>
<path d="M0.895386 13C0.895386 6.37258 6.26797 1 12.8954 1H112.839C119.466 1 124.839 6.37258 124.839 13C124.839 19.6274 119.466 25 112.839 25H12.8954C6.26796 25 0.895386 19.6274 0.895386 13Z" fill="url(#paint2_linear_2208_617)"/>
<path d="M0.895386 13C0.895386 6.37258 6.26797 1 12.8954 1H112.839C119.466 1 124.839 6.37258 124.839 13C124.839 19.6274 119.466 25 112.839 25H12.8954C6.26796 25 0.895386 19.6274 0.895386 13Z" stroke="url(#paint3_linear_2208_617)" stroke-width="1.05485"/>
<path d="M0.895386 13C0.895386 6.37258 6.26797 1 12.8954 1H112.839C119.466 1 124.839 6.37258 124.839 13C124.839 19.6274 119.466 25 112.839 25H12.8954C6.26796 25 0.895386 19.6274 0.895386 13Z" stroke="url(#paint4_linear_2208_617)" stroke-width="1.05485"/>
<path d="M17.5127 19.288C15.326 19.288 13.6247 18.76 12.4087 17.704C11.1927 16.648 10.5847 15.1387 10.5847 13.176V12.952C10.5847 10.9893 11.1927 9.48533 12.4087 8.44C13.6247 7.384 15.3313 6.856 17.5287 6.856C18.8833 6.856 20.062 7.064 21.0647 7.48C22.078 7.88533 22.8673 8.472 23.4327 9.24C23.998 9.99733 24.3073 10.8827 24.3607 11.896V11.96H20.8087V11.896C20.7127 11.1813 20.3713 10.616 19.7847 10.2C19.2087 9.77333 18.4673 9.56 17.5607 9.56C16.5367 9.56 15.726 9.848 15.1287 10.424C14.542 10.9893 14.2487 11.8053 14.2487 12.872V13.24C14.2487 14.3173 14.542 15.144 15.1287 15.72C15.726 16.296 16.5367 16.584 17.5607 16.584C18.478 16.584 19.23 16.3867 19.8167 15.992C20.414 15.5867 20.75 15.0107 20.8247 14.264V14.184H24.3767V14.248C24.3127 15.2613 23.998 16.1467 23.4327 16.904C22.878 17.6613 22.094 18.248 21.0807 18.664C20.078 19.08 18.8887 19.288 17.5127 19.288ZM40.0829 7.112V19H36.6909V11.336L36.3869 11.848L30.4349 19H26.5309V7.112H29.9389V14.792L30.2429 14.264L36.1789 7.112H40.0829ZM49.1995 19.288C47.0129 19.288 45.3115 18.76 44.0955 17.704C42.8795 16.648 42.2715 15.1387 42.2715 13.176V12.952C42.2715 10.9893 42.8795 9.48533 44.0955 8.44C45.3115 7.384 47.0182 6.856 49.2155 6.856C50.5702 6.856 51.7489 7.064 52.7515 7.48C53.7649 7.88533 54.5542 8.472 55.1195 9.24C55.6849 9.99733 55.9942 10.8827 56.0475 11.896V11.96H52.4955V11.896C52.3995 11.1813 52.0582 10.616 51.4715 10.2C50.8955 9.77333 50.1542 9.56 49.2475 9.56C48.2235 9.56 47.4129 9.848 46.8155 10.424C46.2289 10.9893 45.9355 11.8053 45.9355 12.872V13.24C45.9355 14.3173 46.2289 15.144 46.8155 15.72C47.4129 16.296 48.2235 16.584 49.2475 16.584C50.1649 16.584 50.9169 16.3867 51.5035 15.992C52.1009 15.5867 52.4369 15.0107 52.5115 14.264V14.184H56.0635V14.248C55.9995 15.2613 55.6849 16.1467 55.1195 16.904C54.5649 17.6613 53.7809 18.248 52.7675 18.664C51.7649 19.08 50.5755 19.288 49.1995 19.288ZM64.3894 19H60.7574V9.768H56.5494V7.112H68.5974V9.768H64.3894V19ZM81.183 19H70.319V7.112H81.055V9.752H73.935V11.752H80.431V14.12H73.935V16.36H81.183V19ZM86.7029 19H83.3109V7.112H87.6469L91.1349 13.624L91.3749 14.248H91.3909L91.6309 13.624L95.1029 7.112H99.4549V19H96.0629V12.008L96.0949 11.208H96.0789L95.8229 11.848L92.7829 17.336H89.9669L86.9269 11.848L86.6869 11.208H86.6709L86.7029 12.008V19ZM115.901 19H111.981L111.181 16.792H105.901L105.101 19H101.197L106.061 7.112H110.989L115.901 19ZM108.285 10.216L106.781 14.376H110.317L108.813 10.216L108.557 9.4H108.525L108.285 10.216Z" fill="#222222"/>
<path d="M17.5127 19.288C15.326 19.288 13.6247 18.76 12.4087 17.704C11.1927 16.648 10.5847 15.1387 10.5847 13.176V12.952C10.5847 10.9893 11.1927 9.48533 12.4087 8.44C13.6247 7.384 15.3313 6.856 17.5287 6.856C18.8833 6.856 20.062 7.064 21.0647 7.48C22.078 7.88533 22.8673 8.472 23.4327 9.24C23.998 9.99733 24.3073 10.8827 24.3607 11.896V11.96H20.8087V11.896C20.7127 11.1813 20.3713 10.616 19.7847 10.2C19.2087 9.77333 18.4673 9.56 17.5607 9.56C16.5367 9.56 15.726 9.848 15.1287 10.424C14.542 10.9893 14.2487 11.8053 14.2487 12.872V13.24C14.2487 14.3173 14.542 15.144 15.1287 15.72C15.726 16.296 16.5367 16.584 17.5607 16.584C18.478 16.584 19.23 16.3867 19.8167 15.992C20.414 15.5867 20.75 15.0107 20.8247 14.264V14.184H24.3767V14.248C24.3127 15.2613 23.998 16.1467 23.4327 16.904C22.878 17.6613 22.094 18.248 21.0807 18.664C20.078 19.08 18.8887 19.288 17.5127 19.288ZM40.0829 7.112V19H36.6909V11.336L36.3869 11.848L30.4349 19H26.5309V7.112H29.9389V14.792L30.2429 14.264L36.1789 7.112H40.0829ZM49.1995 19.288C47.0129 19.288 45.3115 18.76 44.0955 17.704C42.8795 16.648 42.2715 15.1387 42.2715 13.176V12.952C42.2715 10.9893 42.8795 9.48533 44.0955 8.44C45.3115 7.384 47.0182 6.856 49.2155 6.856C50.5702 6.856 51.7489 7.064 52.7515 7.48C53.7649 7.88533 54.5542 8.472 55.1195 9.24C55.6849 9.99733 55.9942 10.8827 56.0475 11.896V11.96H52.4955V11.896C52.3995 11.1813 52.0582 10.616 51.4715 10.2C50.8955 9.77333 50.1542 9.56 49.2475 9.56C48.2235 9.56 47.4129 9.848 46.8155 10.424C46.2289 10.9893 45.9355 11.8053 45.9355 12.872V13.24C45.9355 14.3173 46.2289 15.144 46.8155 15.72C47.4129 16.296 48.2235 16.584 49.2475 16.584C50.1649 16.584 50.9169 16.3867 51.5035 15.992C52.1009 15.5867 52.4369 15.0107 52.5115 14.264V14.184H56.0635V14.248C55.9995 15.2613 55.6849 16.1467 55.1195 16.904C54.5649 17.6613 53.7809 18.248 52.7675 18.664C51.7649 19.08 50.5755 19.288 49.1995 19.288ZM64.3894 19H60.7574V9.768H56.5494V7.112H68.5974V9.768H64.3894V19ZM81.183 19H70.319V7.112H81.055V9.752H73.935V11.752H80.431V14.12H73.935V16.36H81.183V19ZM86.7029 19H83.3109V7.112H87.6469L91.1349 13.624L91.3749 14.248H91.3909L91.6309 13.624L95.1029 7.112H99.4549V19H96.0629V12.008L96.0949 11.208H96.0789L95.8229 11.848L92.7829 17.336H89.9669L86.9269 11.848L86.6869 11.208H86.6709L86.7029 12.008V19ZM115.901 19H111.981L111.181 16.792H105.901L105.101 19H101.197L106.061 7.112H110.989L115.901 19ZM108.285 10.216L106.781 14.376H110.317L108.813 10.216L108.557 9.4H108.525L108.285 10.216Z" fill="url(#paint5_linear_2208_617)"/>
<path d="M17.5127 19.288C15.326 19.288 13.6247 18.76 12.4087 17.704C11.1927 16.648 10.5847 15.1387 10.5847 13.176V12.952C10.5847 10.9893 11.1927 9.48533 12.4087 8.44C13.6247 7.384 15.3313 6.856 17.5287 6.856C18.8833 6.856 20.062 7.064 21.0647 7.48C22.078 7.88533 22.8673 8.472 23.4327 9.24C23.998 9.99733 24.3073 10.8827 24.3607 11.896V11.96H20.8087V11.896C20.7127 11.1813 20.3713 10.616 19.7847 10.2C19.2087 9.77333 18.4673 9.56 17.5607 9.56C16.5367 9.56 15.726 9.848 15.1287 10.424C14.542 10.9893 14.2487 11.8053 14.2487 12.872V13.24C14.2487 14.3173 14.542 15.144 15.1287 15.72C15.726 16.296 16.5367 16.584 17.5607 16.584C18.478 16.584 19.23 16.3867 19.8167 15.992C20.414 15.5867 20.75 15.0107 20.8247 14.264V14.184H24.3767V14.248C24.3127 15.2613 23.998 16.1467 23.4327 16.904C22.878 17.6613 22.094 18.248 21.0807 18.664C20.078 19.08 18.8887 19.288 17.5127 19.288ZM40.0829 7.112V19H36.6909V11.336L36.3869 11.848L30.4349 19H26.5309V7.112H29.9389V14.792L30.2429 14.264L36.1789 7.112H40.0829ZM49.1995 19.288C47.0129 19.288 45.3115 18.76 44.0955 17.704C42.8795 16.648 42.2715 15.1387 42.2715 13.176V12.952C42.2715 10.9893 42.8795 9.48533 44.0955 8.44C45.3115 7.384 47.0182 6.856 49.2155 6.856C50.5702 6.856 51.7489 7.064 52.7515 7.48C53.7649 7.88533 54.5542 8.472 55.1195 9.24C55.6849 9.99733 55.9942 10.8827 56.0475 11.896V11.96H52.4955V11.896C52.3995 11.1813 52.0582 10.616 51.4715 10.2C50.8955 9.77333 50.1542 9.56 49.2475 9.56C48.2235 9.56 47.4129 9.848 46.8155 10.424C46.2289 10.9893 45.9355 11.8053 45.9355 12.872V13.24C45.9355 14.3173 46.2289 15.144 46.8155 15.72C47.4129 16.296 48.2235 16.584 49.2475 16.584C50.1649 16.584 50.9169 16.3867 51.5035 15.992C52.1009 15.5867 52.4369 15.0107 52.5115 14.264V14.184H56.0635V14.248C55.9995 15.2613 55.6849 16.1467 55.1195 16.904C54.5649 17.6613 53.7809 18.248 52.7675 18.664C51.7649 19.08 50.5755 19.288 49.1995 19.288ZM64.3894 19H60.7574V9.768H56.5494V7.112H68.5974V9.768H64.3894V19ZM81.183 19H70.319V7.112H81.055V9.752H73.935V11.752H80.431V14.12H73.935V16.36H81.183V19ZM86.7029 19H83.3109V7.112H87.6469L91.1349 13.624L91.3749 14.248H91.3909L91.6309 13.624L95.1029 7.112H99.4549V19H96.0629V12.008L96.0949 11.208H96.0789L95.8229 11.848L92.7829 17.336H89.9669L86.9269 11.848L86.6869 11.208H86.6709L86.7029 12.008V19ZM115.901 19H111.981L111.181 16.792H105.901L105.101 19H101.197L106.061 7.112H110.989L115.901 19ZM108.285 10.216L106.781 14.376H110.317L108.813 10.216L108.557 9.4H108.525L108.285 10.216Z" fill="url(#paint6_linear_2208_617)"/>
<defs>
<linearGradient id="paint0_linear_2208_617" x1="-48.642" y1="-23.0583" x2="144.647" y2="-4.81546" gradientUnits="userSpaceOnUse">
<stop stop-color="white" stop-opacity="0.36"/>
<stop offset="0.672915" stop-color="white"/>
<stop offset="1" stop-color="white" stop-opacity="0.35"/>
</linearGradient>
<linearGradient id="paint1_linear_2208_617" x1="62.8672" y1="1" x2="62.8672" y2="25" gradientUnits="userSpaceOnUse">
<stop stop-color="#FCFBFC"/>
<stop offset="1" stop-color="#B7B7B7"/>
</linearGradient>
<linearGradient id="paint2_linear_2208_617" x1="62.8672" y1="1" x2="62.8672" y2="25" gradientUnits="userSpaceOnUse">
<stop stop-color="#2A2A2A"/>
<stop offset="1" stop-color="#060606"/>
</linearGradient>
<linearGradient id="paint3_linear_2208_617" x1="62.8672" y1="1" x2="62.8672" y2="25" gradientUnits="userSpaceOnUse">
<stop stop-color="#B7B7B7"/>
<stop offset="1" stop-color="#FCFBFC"/>
</linearGradient>
<linearGradient id="paint4_linear_2208_617" x1="62.8672" y1="1" x2="62.8672" y2="25" gradientUnits="userSpaceOnUse">
<stop stop-color="#060606"/>
<stop offset="1" stop-color="#575757"/>
</linearGradient>
<linearGradient id="paint5_linear_2208_617" x1="63.5087" y1="7" x2="63.5087" y2="19" gradientUnits="userSpaceOnUse">
<stop stop-color="#2A2A2A"/>
<stop offset="1" stop-color="#060606"/>
</linearGradient>
<linearGradient id="paint6_linear_2208_617" x1="63.5087" y1="7" x2="63.5087" y2="19" gradientUnits="userSpaceOnUse">
<stop stop-color="#FCFBFC"/>
<stop offset="1" stop-color="#B7B7B7"/>
</linearGradient>
</defs>
</svg>
